# AST/ASF file generated using VICON BodyLanguage
# -----------------------------------------------
:version 1.10
:name VICON
:units
  mass 1.0
  length 0.1
  angle deg
:documentation
   .ast/.asf automatically generated from VICON data using
   VICON BodyBuilder and BodyLanguage model FULLBODY5.MOD
:root
   order TX TY TZ RZ RY RX
   axis XYZ
   position 0 0 0  
   orientation 0 -0 0 
:bonedata
  begin
     id 1 
     name lhipjoint
     direction 0.961525 -0.229516 0.150972 
     length 0.502153 
     axis 0 -0 0  XYZ
  end
  begin
     id 2 
     name lfemur
     direction 0.173648 -0.984808 0  
     length 1.83052  
     axis 0 -0 10  XYZ
    dof rx ry rz
    limits (-180.0 180.0)
           (-180.0 180.0)
           (-180.0 180.0)
  end
  begin
     id 3 
     name ltibia
     direction 0.173629 -0.984811 0   
     length 1.50296   
     axis 0 -0 10   XYZ
    dof rx ry rz
    limits (-180.0 180.0)
           (-180.0 180.0)
           (-180.0 180.0)
  end
  begin
     id 4 
     name lfoot
     direction 7.59329e-012 -0.227408 0.9738   
     length 0.574743   
     axis -90 -1.73656e-015 10   XYZ
    dof rx ry rz
    limits (-180.0 180.0)
           (-180.0 180.0)
           (-180.0 180.0)
  end
  begin
     id 5 
     name ltoes
     direction 7.79885e-012 -4.41741e-011 1   
     length 0.28489   
     axis -90 -1.73656e-015 10   XYZ
    dof rx ry rz
    limits (-180.0 180.0)
           (-180.0 180.0)
           (-180.0 180.0)
  end
  begin
     id 6 
     name rhipjoint
     direction -0.970498 -0.201437 0.132502   
     length 0.572149  
     axis 0 -0 0  XYZ 
  end
  begin
     id 7 
     name rfemur
     direction -0.173648 -0.984808 0   
     length 1.71866   
     axis 0 -0 -10   XYZ
    dof rx ry rz
    limits (-180.0 180.0)
           (-180.0 180.0)
           (-180.0 180.0)
  end
  begin
     id 8 
     name rtibia
     direction -0.173624 -0.984812 0   
     length 1.42623   
     axis 0 -0 -10   XYZ
    dof rx ry rz
    limits (-180.0 180.0)
           (-180.0 180.0)
           (-180.0 180.0)
 end
 begin
     id 9 
     name rfoot
     direction -7.12931e-012 -0.404275 0.914637   
     length 0.524692  
     axis -90 1.73656e-015 -10   XYZ
    dof rx ry rz
    limits (-180.0 180.0)
           (-180.0 180.0)
           (-180.0 180.0)
  end
  begin
     id 10 
     name rtoes
     direction -7.79289e-012 -4.41454e-011 1   
     length 0.254983   
     axis -90 1.73656e-015 -10   XYZ
    dof rx ry rz
    limits (-180.0 180.0)
           (-180.0 180.0)
           (-180.0 180.0)
  end
  begin
     id 11 
     name lowerback
     direction -0.0214086 0.993738 0.109665   
     length 0.417614   
     axis 0 -0 0   XYZ
    dof rx ry rz
    limits (-180.0 180.0)
           (-180.0 180.0)
           (-180.0 180.0)
  end
  begin
     id 12 
     name upperback
     direction 8.15962e-005 0.99996 0.00893412   
     length 0.419234   
     axis 0 -0 0   XYZ
    dof rx ry rz
    limits (-180.0 180.0)
           (-180.0 180.0)
           (-180.0 180.0)
  end
  begin
     id 13 
     name thorax
     direction 0.00826031 0.999067 -0.0423848   
     length 0.424697   
     axis 0 -0 0   XYZ
    dof rx ry rz
    limits (-180.0 180.0)
           (-180.0 180.0)
           (-180.0 180.0)
  end
  begin
     id 14 
     name lowerneck
     direction -0.0196262 0.994272 -0.105058   
     length 0.355877   
     axis 0 -0 0   XYZ
    dof rx ry rz
    limits (-180.0 180.0)
           (-180.0 180.0)
           (-180.0 180.0)
  end
  begin
     id 15 
     name upperneck
     direction 0.000117372 0.999091 0.0426261   
     length 0.351054   
     axis 0 -0 0   XYZ
    dof rx ry rz
    limits (-180.0 180.0)
           (-180.0 180.0)
           (-180.0 180.0)
  end
  begin
     id 16
     name head
     direction 0.00157618 0.999651 0.0263619  
     length 0.374844  
     axis 0 -0 0   XYZ
    dof rx ry rz
    limits (-180.0 180.0)
           (-180.0 180.0)
           (-180.0 180.0)
  end
  begin
     id 17 
     name lshoulderjoint
     direction 0.981627 -0.190809 0  
     length 0.701763  
     axis 0 -0 -11   XYZ
    dof rx ry rz
    limits (-180.0 180.0)
           (-180.0 180.0)
           (-180.0 180.0)
  end
  begin
     id 18 
     name lhumerus
     direction 0.48481 -0.87462 -1.80676e-026   
     length 0.994704   
     axis -180 5.14477e-009 -151   XYZ
    dof rx ry rz
    limits (-180.0 180.0)
           (-180.0 180.0)
           (-180.0 180.0)
  end
  begin
     id 19
     name lradius
     direction 0.48481 -0.87462 -3.2569e-026   
     length 0.617638   
     axis -180 5.14477e-009 -151   XYZ
    dof rx ry rz
    limits (-180.0 180.0)
           (-180.0 180.0)
           (-180.0 180.0)
  end
  begin
     id 20
     name lwrist
     direction 0.48481 -0.87462 -6.73202e-026   
     length 0.308819   
     axis -180 5.14477e-009 -151   XYZ
    dof rx ry rz
    limits (-180.0 180.0)
           (-180.0 180.0)
           (-180.0 180.0)
  end
  begin
     id 21 
     name lhand
     direction 0.478366 -0.863761 -0.158376   
     length 0.291656   
     axis -180 5.14477e-009 -151   XYZ
    dof rx ry rz
    limits (-180.0 180.0)
           (-180.0 180.0)
           (-180.0 180.0)
  end
  begin
     id 22 
     name rshoulderjoint
     direction -0.981627 -0.190809 0   
     length 0.66654  
     axis 0 -0 11   XYZ 
    dof rx ry rz
    limits (-180.0 180.0)
           (-180.0 180.0)
           (-180.0 180.0)
  end
  begin
     id 23 
     name rhumerus
     direction -0.48481 -0.87462 1.77576e-026  
     length 1.15089   
     axis 180 5.14477e-009 151   XYZ
    dof rx ry rz
    limits (-180.0 180.0)
           (-180.0 180.0)
           (-180.0 180.0)
  end
  begin
     id 24 
     name rradius
     direction -0.48481 -0.87462 3.79421e-026   
     length 0.613887   
     axis 180 5.14477e-009 151   XYZ
    dof rx ry rz
    limits (-180.0 180.0)
           (-180.0 180.0)
           (-180.0 180.0)
  end
  begin
     id 25 
     name rwrist
     direction -0.48481 -0.87462 5.43623e-026   
     length 0.306944   
     axis 180 5.14477e-009 151   XYZ
    dof rx ry rz
    limits (-180.0 180.0)
           (-180.0 180.0)
           (-180.0 180.0)
  end
  begin
     id 26
     name rhand
     direction -0.479273 -0.864638 -0.150661   
     length 0.306429   
     axis 180 5.14477e-009 151   XYZ
    dof rx ry rz
    limits (-180.0 180.0)
           (-180.0 180.0)
           (-180.0 180.0)
  end
:hierarchy
  begin
    root lhipjoint rhipjoint lowerback 
    lhipjoint lfemur
    lfemur ltibia
    ltibia lfoot
    lfoot ltoes
    rhipjoint rfemur
    rfemur rtibia
    rtibia rfoot
    rfoot rtoes
    lowerback upperback
    upperback thorax
    thorax lowerneck lshoulderjoint rshoulderjoint
    lowerneck upperneck
    upperneck head
    lshoulderjoint lhumerus
    lhumerus lradius
    lradius lwrist
    lwrist lhand
    rshoulderjoint rhumerus
    rhumerus rradius
    rradius rwrist
    rwrist rhand
  end

:FULLY-SPECIFIED
:DEGREES
485
root 6.58957 3.59857 -0.385417 102.007 -73.1791 96.3992
lowerback -19.0414 -1.51494 -3.95512
upperback -2.88646 -1.29834 -1.12248
thorax 7.59393 -0.805689 0.700976
lowerneck 10.2361 1.72667 -2.34449
upperneck -2.44802 1.9712 -0.0108933
head -2.58565 0.995216 0.299356
rshoulderjoint 1.79906 -4.43856 -33.0905
rhumerus -3.65788 -13.8606 -61.8498
rradius 24.7215 2.8943e-013 6.04305e-014
rwrist 2.39441e-014 4.96744 -1.40472e-013
rhand 5.21227 -4.27158 31.6629
lshoulderjoint 3.14128 12.0382 25.7423
lhumerus -0.0477411 13.1428 56.5389
lradius 16.0985 -2.83069e-013 1.63003e-014
lwrist 6.10236e-014 -7.99429 1.99932e-013
lhand 14.0551 7.5039 -22.3581
rfemur -11.2345 2.42191 9.35082
rtibia 3.97569e-015 -1.03368e-014 -7.95139e-015
rfoot -6.45885 15.5162 -12.2708
rtoes -6.75868e-015 -3.52843e-015 -5.08889e-014
lfemur -11.2805 -4.61471 -19.931
ltibia 1.82882e-014 -1.98785e-014 1.59028e-014
lfoot -6.6601 -3.91168 11.7262
ltoes 6.39093e-014 -3.16813e-014 -6.12257e-014
486
root 6.58912 3.5985 -0.385626 101.632 -73.2248 96.1179
lowerback -19.0065 -1.50447 -3.88426
upperback -2.87167 -1.29907 -1.11695
thorax 7.58997 -0.803593 0.667193
lowerneck 10.2023 1.70868 -2.33393
upperneck -2.42388 1.95135 0.0172944
head -2.57114 0.984099 0.307995
rshoulderjoint 1.79633 -4.43575 -33.0728
rhumerus -3.68231 -14.0124 -61.8202
rradius 24.7485 9.22361e-014 -1.07344e-014
rwrist 5.49172e-013 5.03157 -1.42082e-013
rhand 5.26363 -4.31234 31.6582
lshoulderjoint 3.15097 12.0673 25.7524
lhumerus 0.00218266 12.864 56.515
lradius 16.1008 -1.55847e-013 -2.21446e-013
lwrist 4.59314e-013 -8.02238 -2.76231e-013
lhand 14.2459 7.54186 -22.2885
rfemur -11.1798 2.32041 9.45968
rtibia -2.14687e-014 -1.07344e-014 1.03368e-014
rfoot -6.47969 15.4623 -12.2523
rtoes 1.38354e-013 -2.59414e-013 3.18055e-015
lfemur -11.2478 -4.70413 -19.8259
ltibia 3.18055e-015 -2.38542e-015 4.29375e-014
lfoot -6.65334 -3.88136 11.735
ltoes 7.96133e-014 -1.23495e-013 -8.50798e-014
487
root 6.58904 3.59876 -0.384901 101.196 -73.2599 95.6608
lowerback -18.9585 -1.52392 -3.89613
upperback -2.86515 -1.32306 -1.12348
thorax 7.57217 -0.814863 0.661823
lowerneck 10.1807 1.69825 -2.37153
upperneck -2.43027 1.93457 0.0365141
head -2.56985 0.975672 0.321764
rshoulderjoint 1.79856 -4.43615 -33.0957
rhumerus -3.67205 -14.1599 -61.7916
rradius 24.75 -4.64361e-013 -4.05521e-014
rwrist 1.2165e-012 5.0424 2.12329e-013
rhand 5.28042 -4.322 31.6605
lshoulderjoint 3.15083 12.1163 25.6955
lhumerus 0.0647946 12.8619 56.4893
lradius 16.0646 3.78486e-013 -1.19668e-013
lwrist 9.49276e-013 -8.07941 -3.04379e-013
lhand 14.5377 7.42633 -22.1254
rfemur -11.1394 2.16718 9.4428
rtibia -6.44062e-014 3.97569e-015 7.95139e-015
rfoot -6.50181 15.3815 -12.2464
rtoes 2.17073e-013 -8.58253e-014 -1.44715e-013
lfemur -11.2264 -4.84679 -19.8433
ltibia -1.43125e-014 -9.54166e-015 2.14687e-014
lfoot -6.64927 -3.89923 11.7475
ltoes 2.2413e-013 -8.06072e-014 1.74931e-014
488
root 6.5889 3.59886 -0.38479 100.752 -73.3225 95.241
lowerback -18.89 -1.53002 -3.90798
upperback -2.84956 -1.3302 -1.11937
thorax 7.55275 -0.817826 0.672548
lowerneck 10.1961 1.66855 -2.36336
upperneck -2.46318 1.89586 0.0370289
head -2.58328 0.956724 0.322395
rshoulderjoint 1.80802 -4.457 -33.1071
rhumerus -3.65976 -14.3894 -61.7815
rradius 24.7201 -1.20861e-013 -5.92378e-014
rwrist 2.65006e-013 5.02971 -3.03321e-014
rhand 5.30952 -4.28734 31.6912
lshoulderjoint 3.14099 12.0966 25.674
lhumerus 0.106746 12.6365 56.4477
lradius 16.0544 1.46306e-013 -4.92986e-014
lwrist 1.38153e-013 -8.13185 -1.56627e-013
lhand 14.6981 7.57915 -22.0224
rfemur -11.0691 2.02291 9.48311
rtibia -1.98785e-014 -1.19271e-015 7.15625e-015
rfoot -6.53117 15.3529 -12.2282
rtoes 2.22639e-014 2.8625e-014 -7.4743e-014
lfemur -11.1829 -4.97645 -19.8091
ltibia -2.38542e-014 -4.21423e-014 4.77083e-015
lfoot -6.63838 -3.95616 11.7495
ltoes 3.48867e-014 -2.84262e-014 -1.63003e-013
489
root 6.58884 3.5987 -0.384282 100.357 -73.3431 94.9128
lowerback -18.8578 -1.51721 -3.84576
upperback -2.83047 -1.32597 -1.10777
thorax 7.55495 -0.81365 0.651336
lowerneck 10.152 1.64191 -2.38342
upperneck -2.47909 1.86077 0.0578577
head -2.58053 0.93917 0.33473
rshoulderjoint 1.8267 -4.50375 -33.1046
rhumerus -3.61738 -14.6146 -61.7598
rradius 24.6785 2.83069e-013 3.57812e-015
rwrist -3.20882e-013 5.03015 -2.04342e-013
rhand 5.32157 -4.2439 31.7448
lshoulderjoint 3.13675 12.121 25.6272
lhumerus 0.180146 12.3935 56.3892
lradius 16.0418 -2.73528e-013 6.75868e-015
lwrist -2.77946e-013 -8.18062 1.18087e-013
lhand 14.8422 7.75103 -21.9557
rfemur -11.0472 1.91115 9.55486
rtibia 0 -1.0138e-014 -7.95139e-016
rfoot -6.54524 15.2874 -12.2134
rtoes -1.74931e-014 -2.91716e-014 -1.43125e-014
lfemur -11.1812 -5.08093 -19.7438
ltibia 1.82882e-014 4.77083e-015 1.66979e-014
lfoot -6.62773 -4.08591 11.773
ltoes -3.73715e-014 -3.98066e-014 -6.59965e-014
490
root 6.58858 3.59841 -0.384315 99.962 -73.386 94.6235
lowerback -18.819 -1.52573 -3.79867
upperback -2.79832 -1.34899 -1.05189
thorax 7.57033 -0.823335 0.679501
lowerneck 10.1096 1.63403 -2.46916
upperneck -2.51901 1.84351 0.0989833
head -2.58761 0.930794 0.364001
rshoulderjoint 1.81618 -4.46668 -33.1539
rhumerus -3.5491 -14.8178 -61.7643
rradius 24.6 2.51264e-013 -6.91771e-014
rwrist -6.06662e-014 5.05193 -3.33664e-013
rhand 5.30625 -4.2594 31.8373
lshoulderjoint 3.14674 12.1982 25.5843
lhumerus 0.260558 12.487 56.4309
lradius 16.0225 -2.48083e-013 -3.63776e-014
lwrist -1.70339e-013 -8.26515 4.33881e-014
lhand 15.0972 7.67357 -21.8834
rfemur -11.0004 1.81032 9.67946
rtibia 7.95139e-015 2.78299e-015 3.97569e-015
rfoot -6.5842 15.3394 -12.2101
rtoes -1.63003e-014 -2.98674e-014 2.54444e-014
lfemur -11.1582 -5.17175 -19.6318
ltibia 2.70347e-014 -2.94201e-014 1.35174e-014
lfoot -6.60267 -4.17179 11.7801
ltoes -1.13307e-014 -3.00786e-014 -1.39944e-013
491
root 6.58836 3.59822 -0.3837 99.5884 -73.4192 94.2752
lowerback -18.7952 -1.53062 -3.79624
upperback -2.7843 -1.35677 -1.03253
thorax 7.57347 -0.826815 0.697392
lowerneck 10.1799 1.61538 -2.52123
upperneck -2.61021 1.81184 0.129686
head -2.6324 0.91554 0.384056
rshoulderjoint 1.80103 -4.42009 -33.1956
rhumerus -3.52339 -15.0139 -61.7614
rradius 24.5279 3.53042e-013 1.66979e-014
rwrist 1.10953e-012 5.03887 -3.51218e-013
rhand 5.31331 -4.25472 31.9118
lshoulderjoint 3.12637 12.1629 25.5334
lhumerus 0.291056 12.5991 56.4028
lradius 15.9978 -3.65764e-013 -2.32379e-013
lwrist 8.77705e-013 -8.39884 -1.15741e-013
lhand 15.3121 7.75117 -21.8229
rfemur -10.9536 1.69101 9.71049
rtibia -4.77083e-015 -6.95746e-015 -3.18055e-015
rfoot -6.6168 15.2846 -12.2026
rtoes 1.97592e-013 -2.41275e-013 -1.11319e-014
lfemur -11.1342 -5.2807 -19.6048
ltibia -2.38542e-014 -2.62396e-014 3.81667e-014
lfoot -6.58107 -4.11036 11.785
ltoes 1.97194e-013 -8.18372e-014 -2.15483e-013
492
root 6.58806 3.59786 -0.383527 99.2927 -73.4355 94.0548
lowerback -18.7677 -1.50657 -3.7395
upperback -2.78465 -1.33747 -1.0292
thorax 7.55627 -0.815498 0.674363
lowerneck 10.2308 1.58512 -2.51097
upperneck -2.6653 1.77317 0.158824
head -2.66037 0.895759 0.393381
rshoulderjoint 1.79404 -4.40975 -33.1645
rhumerus -3.54712 -15.189 -61.7345
rradius 24.4569 -1.36764e-013 1.06946e-013
rwrist 1.10165e-013 5.09962 2.9537e-013
rhand 5.34306 -4.3081 31.9264
lshoulderjoint 3.12188 12.1272 25.5536
lhumerus 0.309094 12.5426 56.3833
lradius 15.9832 6.04305e-014 -3.65764e-014
lwrist 2.28337e-013 -8.51604 -6.67323e-014
lhand 15.4719 7.933 -21.8234
rfemur -10.9269 1.61344 9.79673
rtibia 7.95139e-015 -6.75868e-015 7.95139e-016
rfoot -6.63826 15.2567 -12.1989
rtoes 8.15017e-014 -5.6753e-014 -7.63333e-014
lfemur -11.1247 -5.3495 -19.5155
ltibia -2.94201e-014 -2.54444e-014 1.82882e-014
lfoot -6.55151 -3.93046 11.7657
ltoes 6.10269e-014 -4.68759e-014 -9.62118e-014
